<svg width="112" height="112" viewBox="0 0 112 112" fill="none" xmlns="http://www.w3.org/2000/svg">
<path d="M56.0413 103.101C26.7929 103.101 7.38019 90.4184 7.38019 90.4184L2.97998 97.6658C2.97998 97.6658 24.2045 111.129 56.0413 111.643C88.1369 112.161 109.879 97.6658 109.879 97.6658L105.738 90.4184C105.738 90.4184 84.7721 103.101 56.0413 103.101Z" fill="white"/>
<path fill-rule="evenodd" clip-rule="evenodd" d="M56.3002 0.343567L10.4863 84.2063C10.4863 84.2063 30.1578 96.1128 56.8179 96.1128C83.7368 96.1128 102.632 84.2063 102.632 84.2063L56.3002 0.343567ZM56.3002 35.0276L33.7815 76.1824C33.7815 76.1824 44.3938 79.4707 56.0414 79.5473C66.9125 79.6188 79.3366 76.1824 79.3366 76.1824L56.3002 35.0276Z" fill="white"/>
</svg>
